<?xml version="1.0" encoding="utf-8"?>
<!-- Generator: Adobe Illustrator 19.2.1, SVG Export Plug-In . SVG Version: 6.00 Build 0)  -->
<svg version="1.1" id="图层_1" xmlns="http://www.w3.org/2000/svg" xmlns:xlink="http://www.w3.org/1999/xlink" x="0px" y="0px"
	 viewBox="0 0 122 37" enable-background="new 0 0 122 37" xml:space="preserve">
<g>
	<path fill="#FFFFFF" d="M19.1,2.1C10,2.1,2.7,9.4,2.7,18.5S10,34.9,19.1,34.9c9.1,0,16.4-7.3,16.4-16.4S28.2,2.1,19.1,2.1z"/>
	<path fill="#FFA800" d="M19.1,0.3c-10,0-18.2,8.2-18.2,18.2s8.1,18.2,18.2,18.2c10,0,18.2-8.2,18.2-18.2S29.2,0.3,19.1,0.3z
		 M22.3,28.8c-0.5,0.9-1.2,1.7-2,2.6c-1.2,1.4-2.7,2-4.5,1.9c-1.2-0.1-2-0.4-2.6-1.1c-0.5-0.7-0.8-1.5-0.7-2.4
		c0.1-0.9,0.4-2.2,1-3.7l3.2-8.1c0.3-0.7,0.5-1.2,0.5-1.5c0-0.2,0-0.3-0.2-0.5c-0.1-0.1-0.3-0.2-0.4-0.2c-0.4,0-1,0.3-1.7,0.9
		c-0.5,0.4-1,0.9-1.5,1.6c-0.1,0.2-0.4,0.6-0.8,0.5c-0.3-0.1-0.2-0.4,0-1c0.6-1.2,1.7-2.6,2.6-3.4c1.3-1.2,2.8-1.6,4-1.5
		c0.9,0.1,1.7,0.4,2.2,0.9c0.6,0.5,0.8,1.2,0.8,2.1c-0.1,0.9-0.3,1.8-0.6,2.7l-3.8,9.7c-0.3,0.7-0.4,1.2-0.4,1.6
		c0,0.2,0,0.4,0.2,0.6c0.1,0.2,0.3,0.3,0.4,0.3c0.4,0,0.9-0.2,1.3-0.7c0.4-0.4,0.9-1.2,1.6-2.2c0.2-0.3,0.5-0.5,0.8-0.4
		C22.4,27.3,22.7,28.2,22.3,28.8z M24,9.2c-0.6,0.6-1.3,0.9-2.1,0.9c-0.9,0-1.6-0.3-2.2-0.9c-0.6-0.6-0.9-1.3-0.9-2.2
		c0-0.8,0.3-1.5,0.9-2.1c0.6-0.6,1.3-0.9,2.2-0.9c0.6,0,1.1,0.1,1.5,0.4c0.5,0.3,0.8,0.6,1.1,1.1c0.3,0.4,0.4,1,0.4,1.5
		C24.9,7.8,24.6,8.5,24,9.2z"/>
	<polygon fill="#FFFFFF" points="61.7,15.9 47.5,15.9 47.5,4.7 43.9,4.7 43.9,32.1 47.5,32.1 47.5,19.2 61.7,19.2 61.7,32.1
		65.4,32.1 65.4,4.7 61.7,4.7 	"/>
	<path fill="#FFFFFF" d="M79.7,13.5c-1.8,0-3.5,0.6-5.2,1.7L76,7.8h10.9V4.6H73.3l-2.7,14.1l3.2,0.4c0.5-0.8,1.2-1.4,2.1-1.9
		c0.9-0.5,1.8-0.7,2.9-0.7c1.7,0,3.2,0.6,4.2,1.7c1.1,1.1,1.6,2.6,1.6,4.5c0,2-0.6,3.6-1.7,4.9c-1.1,1.2-2.5,1.8-4.1,1.8
		c-1.3,0-2.5-0.4-3.4-1.3c-1-0.9-1.6-2.2-1.8-3.9L70,24.4c0.2,2.3,1.1,4.2,2.7,5.6c1.6,1.4,3.6,2.1,6.1,2.1c3,0,5.4-1.1,7.2-3.3
		c1.4-1.8,2.2-3.9,2.2-6.4c0-2.6-0.8-4.7-2.5-6.4S82,13.5,79.7,13.5z"/>
	.1z"/>

</g>
</svg>
